<svg width="32" height="32" viewBox="0 0 32 32" fill="none" xmlns="http://www.w3.org/2000/svg">
<mask id="mask0_7692_25861" style="mask-type:alpha" maskUnits="userSpaceOnUse" x="3" y="3" width="26" height="26">
<circle cx="16" cy="16" r="13" fill="#ffbc0d"/>
</mask>
<g mask="url(#mask0_7692_25861)">
<path d="M16 3C23.1797 3 29 8.8203 29 16C29 23.1797 23.1797 29 16 29C8.8203 29 3 23.1797 3 16C3 8.8203 8.8203 3 16 3ZM16 4.59C9.69843 4.59 4.59 9.69843 4.59 16C4.59 22.3016 9.69843 27.41 16 27.41C22.3016 27.41 27.41 22.3016 27.41 16C27.41 9.69843 22.3016 4.59 16 4.59Z" fill="#ffbc0d"/>
<path d="M16.5001 19C19.3949 19 21.8865 24.3368 23 32L20.0516 31.9999C19.4075 25.2306 18.0594 20.5717 16.5001 20.5717C14.9409 20.5717 13.5925 25.2306 12.9483 31.9999L10 32C11.1137 24.3368 13.6058 19 16.5001 19Z" fill="#ffbc0d"/>
<path d="M16.5 8C18.9853 8 21 10.0147 21 12.5C21 14.9853 18.9853 17 16.5 17C14.0147 17 12 14.9853 12 12.5C12 10.0147 14.0147 8 16.5 8ZM16.5 9.5C15.2574 9.5 14.25 10.8431 14.25 12.5C14.25 14.1569 15.2574 15.5 16.5 15.5C17.7426 15.5 18.75 14.1569 18.75 12.5C18.75 10.8431 17.7426 9.5 16.5 9.5Z" fill="#ffbc0d"/>
</g>
</svg>
