<svg width="24" height="24" viewBox="0 0 24 24" fill="none" xmlns="http://www.w3.org/2000/svg">
<path d="M7.2 17.25C7.2 17.7313 7.58812 18.125 8.0625 18.125H8.925V21.1875C8.925 21.9137 9.50287 22.5 10.2188 22.5C10.9346 22.5 11.5125 21.9137 11.5125 21.1875V18.125H13.2375V21.1875C13.2375 21.9137 13.8154 22.5 14.5312 22.5C15.2471 22.5 15.825 21.9137 15.825 21.1875V18.125H16.6875C17.1619 18.125 17.55 17.7313 17.55 17.25V8.5H7.2V17.25ZM5.04375 8.5C4.32788 8.5 3.75 9.08625 3.75 9.8125V15.9375C3.75 16.6637 4.32788 17.25 5.04375 17.25C5.75962 17.25 6.3375 16.6637 6.3375 15.9375V9.8125C6.3375 9.08625 5.75962 8.5 5.04375 8.5ZM19.7062 8.5C18.9904 8.5 18.4125 9.08625 18.4125 9.8125V15.9375C18.4125 16.6637 18.9904 17.25 19.7062 17.25C20.4221 17.25 21 16.6637 21 15.9375V9.8125C21 9.08625 20.4221 8.5 19.7062 8.5ZM15.4196 3.39L16.5409 2.2525C16.7134 2.0775 16.7134 1.80625 16.5409 1.63125C16.3684 1.45625 16.101 1.45625 15.9285 1.63125L14.652 2.92625C13.9706 2.57625 13.1944 2.375 12.375 2.375C11.547 2.375 10.7708 2.57625 10.0807 2.92625L8.79562 1.63125C8.62313 1.45625 8.35575 1.45625 8.18325 1.63125C8.01075 1.80625 8.01075 2.0775 8.18325 2.2525L9.31312 3.39875C8.03662 4.3525 7.2 5.88375 7.2 7.625H17.55C17.55 5.88375 16.7134 4.34375 15.4196 3.39ZM10.65 5.44375C10.65 5.68192 10.4569 5.875 10.2188 5.875C9.98058 5.875 9.7875 5.68192 9.7875 5.44375V5.43125C9.7875 5.19308 9.98058 5 10.2188 5C10.4569 5 10.65 5.19308 10.65 5.43125V5.44375ZM14.9625 5.44375C14.9625 5.68192 14.7694 5.875 14.5312 5.875C14.2931 5.875 14.1 5.68192 14.1 5.44375V5.43125C14.1 5.19308 14.2931 5 14.5312 5C14.7694 5 14.9625 5.19308 14.9625 5.43125V5.44375Z" fill="#292929"/>
</svg>
