<svg width="16" height="19" viewBox="0 0 16 19" fill="none" xmlns="http://www.w3.org/2000/svg">
<path fill-rule="evenodd" clip-rule="evenodd" d="M8.22034 4.3762C9.08343 4.3762 10.1653 3.80486 10.7974 3.02687C11.3809 2.32182 11.8064 1.34933 11.8064 0.376839C11.8064 0.243122 11.7942 0.109405 11.7699 0C10.8096 0.0364683 9.65476 0.632118 8.97402 1.43442C8.43915 2.05438 7.9286 3.02687 7.9286 4.01152C7.9286 4.15739 7.95291 4.30326 7.96507 4.35189C8.02585 4.36404 8.12309 4.3762 8.22034 4.3762ZM15.2342 6.47921C13.9578 4.63149 12.0128 4.58286 11.4779 4.58286C10.6378 4.58286 9.89606 4.87809 9.27416 5.12562C8.82527 5.30429 8.43882 5.4581 8.12286 5.4581C7.77306 5.4581 7.37322 5.29609 6.92757 5.11552C6.36657 4.88821 5.73298 4.63149 5.03521 4.63149C2.67693 4.63149 0.27002 6.60077 0.27002 10.2841C0.27002 12.5937 1.15742 15.0128 2.25146 16.5809C3.19964 17.906 4.02626 19 5.2054 19C5.76364 19 6.17475 18.8229 6.60771 18.6364C7.08927 18.4289 7.59786 18.2099 8.36599 18.2099C9.12403 18.2099 9.58181 18.4133 10.0255 18.6104C10.4428 18.7958 10.8476 18.9757 11.4779 18.9757C12.7543 18.9757 13.6174 17.7965 14.4197 16.6296C15.3314 15.2924 15.7083 14.0038 15.7204 13.9309C15.6475 13.9066 13.192 12.9098 13.192 10.0896C13.192 7.81556 14.8661 6.72083 15.1864 6.5114C15.2103 6.4958 15.2266 6.48511 15.2342 6.47921Z" fill="#292929"/>
</svg>
