<svg width="32" height="32" viewBox="0 0 32 32" fill="none" xmlns="http://www.w3.org/2000/svg">
<g id="Receipt">
<g id="Receipt / 32px / Outline">
<path d="M22 11L11 11C10.4477 11 10 10.5523 10 10V9.25L21 9.25C21.5523 9.25 22 9.69772 22 10.25V11Z" fill="#ffbc0d"/>
<path d="M10 16L21 16C21.5523 16 22 15.5523 22 15V14.25L11 14.25C10.4477 14.25 10 14.6977 10 15.25V16Z" fill="#ffbc0d"/>
<path d="M22 21L11 21C10.4477 21 10 20.5523 10 20V19.25L21 19.25C21.5523 19.25 22 19.6977 22 20.25V21Z" fill="#ffbc0d"/>
<path fill-rule="evenodd" clip-rule="evenodd" d="M20.0487 27.8702L22.75 26L25.4233 27.887C26.0857 28.3546 27 27.8809 27 27.0701V6C27 4.89543 26.1046 4 25 4H7C5.89543 4 5 4.89543 5 6V27.0701C5 27.8809 5.91427 28.3546 6.57668 27.887L9.25 26L11.9514 27.8702C12.2835 28.1001 12.7215 28.1076 13.0613 27.8892L16 26L18.9387 27.8892C19.2785 28.1076 19.7165 28.1001 20.0487 27.8702ZM23.7592 24.5703C23.159 24.1466 22.358 24.143 21.7539 24.5612L19.464 26.1465L16.9463 24.5279C16.3699 24.1574 15.6301 24.1574 15.0537 24.5279L12.536 26.1465L10.2461 24.5612C9.64204 24.143 8.84105 24.1466 8.2408 24.5703L6.75 25.6226V6C6.75 5.86193 6.86193 5.75 7 5.75H25C25.1381 5.75 25.25 5.86193 25.25 6V25.6226L23.7592 24.5703Z" fill="#ffbc0d"/>
</g>
</g>
</svg>
