<svg width="32" height="32" viewBox="0 0 32 32" fill="none" xmlns="http://www.w3.org/2000/svg">
<g id="Restaurants">
<g id="Location / 32px / Outline">
<path fill-rule="evenodd" clip-rule="evenodd" d="M22.75 11.4122C22.75 7.65288 19.7198 4.62012 16 4.62012C12.2802 4.62012 9.25 7.65288 9.25 11.4122C9.25 12.4225 9.67111 14.1834 10.7283 16.8402C11.7628 19.4401 13.3318 22.7202 15.4523 26.6942L15.4529 26.6954L15.7152 27.185L15.7584 27.2578C15.8464 27.3741 16.0109 27.4121 16.144 27.3406C16.1966 27.3123 16.2397 27.2692 16.2679 27.2167C18.4828 23.0961 20.1224 19.6985 21.2038 17.0101C22.3089 14.2628 22.75 12.4471 22.75 11.4122ZM14.2812 28.1978C14.8582 29.0814 16.0259 29.3909 16.9725 28.882C17.3275 28.6912 17.6185 28.4002 17.8093 28.0452C22.2698 19.7469 24.5 14.2026 24.5 11.4122C24.5 6.69454 20.6944 2.87012 16 2.87012C11.3056 2.87012 7.5 6.69454 7.5 11.4122C7.5 14.1432 9.63633 19.5122 13.909 27.5193L14.1907 28.0452L14.2812 28.1978Z" fill="#ffbc0d"/>
<path fill-rule="evenodd" clip-rule="evenodd" d="M16 9.87512C14.8264 9.87512 13.875 10.8265 13.875 12.0001C13.875 13.1737 14.8264 14.1251 16 14.1251C17.1736 14.1251 18.125 13.1737 18.125 12.0001C18.125 10.8265 17.1736 9.87512 16 9.87512ZM12.125 12.0001C12.125 9.86002 13.8599 8.12512 16 8.12512C18.1401 8.12512 19.875 9.86002 19.875 12.0001C19.875 14.1402 18.1401 15.8751 16 15.8751C13.8599 15.8751 12.125 14.1402 12.125 12.0001Z" fill="#ffbc0d"/>
</g>
</g>
</svg>
