<svg width="24" height="24" viewBox="0 0 24 24" fill="none" xmlns="http://www.w3.org/2000/svg">
<path d="M13.745 1.72723L14.0218 1.80253L20.46 2.74709C20.6522 2.77559 20.7999 2.92507 20.8303 3.11118L20.8361 3.18253V12.2855C20.8361 18.2715 14.1414 22.3264 11.9183 22.3264C9.72786 22.3264 3.19595 18.3899 3.00431 12.5483L3 12.2855V3.18253C3 2.98857 3.12665 2.82071 3.30637 2.76328L3.3761 2.74709L9.8148 1.80253C11.1019 1.42605 12.4494 1.40095 13.745 1.72723ZM10.4597 3.12336L10.2201 3.18822L10.1237 3.21641L4.44375 4.04925V12.2855C4.44375 14.4535 5.53186 16.5381 7.38402 18.2862L7.59294 18.4791C9.16696 19.9001 11.1174 20.8826 11.9183 20.8826C12.7191 20.8826 14.6694 19.9001 16.2434 18.4791C18.1515 16.7563 19.3077 14.6875 19.3879 12.526L19.3923 12.2855L19.392 4.04925L13.7129 3.21642L13.6166 3.18826C12.5813 2.88554 11.501 2.86392 10.4597 3.12336ZM12.0752 8.1C12.9849 8.1 13.725 8.88428 13.725 9.84754C13.725 10.3628 13.5126 10.8446 13.1479 11.1747L13.5613 13.4947C13.5781 13.5886 13.5544 13.6852 13.4967 13.7588C13.4391 13.8324 13.3538 13.875 13.2635 13.875H10.8868C10.7965 13.875 10.7112 13.8321 10.6536 13.7588C10.5959 13.6856 10.5726 13.5886 10.5894 13.4947L11.0024 11.1747C10.6378 10.8446 10.425 10.3628 10.425 9.84789C10.425 8.88428 11.1654 8.1 12.0752 8.1Z" fill="#292929"/>
</svg>
